<svg id="Filled" height="512" viewBox="0 0 512 512" width="512" xmlns="http://www.w3.org/2000/svg"><rect fill="#eb423f" height="224" rx="16" width="464" x="24" y="40"/><path d="m56 72h400v160h-400z" fill="#c7312e"/><path d="m72 104h208a16 16 0 0 1 16 16v208a0 0 0 0 1 0 0h-240a0 0 0 0 1 0 0v-208a16 16 0 0 1 16-16z" fill="#d0d2d4"/><g fill="#3397e8"><path d="m152 168a31.973 31.973 0 1 1 -24-30.99 32.012 32.012 0 0 1 24 30.99z"/><path d="m264 168a31.973 31.973 0 1 1 -24-30.99 32.012 32.012 0 0 1 24 30.99z"/><path d="m152 264a31.973 31.973 0 1 1 -24-30.99 32.012 32.012 0 0 1 24 30.99z"/></g><path d="m264 152h192v48h-192z" fill="#dadcde"/><rect fill="#dadcde" height="224" rx="16" width="192" x="264" y="232"/><path d="m296 200h128v32h-128z" fill="#c3c6c7"/><path d="m296 264h128v128h-128z" fill="#3397e8"/><path d="m24 296h464a0 0 0 0 1 0 0v160a16 16 0 0 1 -16 16h-432a16 16 0 0 1 -16-16v-160a0 0 0 0 1 0 0z" fill="#eb423f"/><path d="m24 296h464v32h-464z" fill="#e1e3e6"/><path d="m184 40h144v32h-144z" fill="#e9eef2"/><circle cx="256" cy="296" fill="#e9eef2" r="72"/><path d="m296 280h-24v-24h-32v24h-24v32h24v24h32v-24h24z" fill="#eb423f"/><path d="m328 376h128v64h-128z" fill="#c7312e"/><path d="m472 272a24.028 24.028 0 0 0 24-24v-192a24.028 24.028 0 0 0 -24-24h-432a24.028 24.028 0 0 0 -24 24v192a24.028 24.028 0 0 0 24 24h8v16h-24a8 8 0 0 0 -8 8v160a24.028 24.028 0 0 0 24 24h432a24.028 24.028 0 0 0 24-24v-160a8 8 0 0 0 -8-8h-24v-16zm8-216v192a8.009 8.009 0 0 1 -8 8h-8v-8a23.844 23.844 0 0 0 -2.346-10.341 7.972 7.972 0 0 0 2.346-5.659v-160a8 8 0 0 0 -8-8h-120v-16h136a8.009 8.009 0 0 1 8 8zm-160 240a64 64 0 1 1 -64-64 64.072 64.072 0 0 1 64 64zm-16-72v-16h112v16zm-80-33.376a24 24 0 0 1 0-45.248zm16-45.248a24 24 0 0 1 0 45.248zm32 14.624h16v32h-16zm8-64h-208a23.889 23.889 0 0 0 -8 1.376v-17.376h384v64h-144v-24a24.027 24.027 0 0 0 -24-24zm-88-32v-16h128v16zm160 96v32h-16v-32zm16 0h16v32h-16zm32 0h16v32h-16zm32 0h16v32h-16zm-112 0v32h-16v-32zm112 48h16v16h-16zm-392 48a8.009 8.009 0 0 1 -8-8v-192a8.009 8.009 0 0 1 8-8h136v16h-120a8 8 0 0 0 -8 8v184zm24-136a8.009 8.009 0 0 1 8-8h208a8.009 8.009 0 0 1 8 8v24h-24.021a40 40 0 1 0 -7.979 55.978v.022a8 8 0 0 0 8 8h24v14.7a79.956 79.956 0 0 0 -111.6 65.3h-24.422a40 40 0 1 0 -63.956 0h-24.022zm64 166.624v-45.248a24 24 0 0 1 0 45.248zm-16 0a24 24 0 0 1 0-45.248zm64.4 17.376a79.433 79.433 0 0 0 3.282 16h-147.682v-16zm295.6 160h-432a8.009 8.009 0 0 1 -8-8v-120h154.763a79.922 79.922 0 0 0 138.474 0h154.763v120a8.009 8.009 0 0 1 -8 8zm-56-176h-80.4a79.433 79.433 0 0 0 -3.282-16h83.682zm64 32h-147.683a79.433 79.433 0 0 0 3.282-16h144.401zm-48-32v-24a8 8 0 0 0 -8-8h-98.763a80.479 80.479 0 0 0 -12.178-16h126.941a8.009 8.009 0 0 1 8 8v40z"/><path d="m120 208a40 40 0 1 0 -40-40 40.045 40.045 0 0 0 40 40zm24-40a24.039 24.039 0 0 1 -16 22.624v-45.248a24.039 24.039 0 0 1 16 22.624zm-32-22.624v45.248a24 24 0 0 1 0-45.248z"/><path d="m232 256v16h-16a8 8 0 0 0 -8 8v32a8 8 0 0 0 8 8h16v16a8 8 0 0 0 8 8h32a8 8 0 0 0 8-8v-16h16a8 8 0 0 0 8-8v-32a8 8 0 0 0 -8-8h-16v-16a8 8 0 0 0 -8-8h-32a8 8 0 0 0 -8 8zm16 24v-16h16v16a8 8 0 0 0 8 8h16v16h-16a8 8 0 0 0 -8 8v16h-16v-16a8 8 0 0 0 -8-8h-16v-16h16a8 8 0 0 0 8-8z"/><path d="m456 368h-128a8 8 0 0 0 -8 8v64a8 8 0 0 0 8 8h128a8 8 0 0 0 8-8v-64a8 8 0 0 0 -8-8zm-8 64h-112v-48h112z"/><path d="m104 400h-48a8 8 0 0 0 0 16h48a8 8 0 0 0 0-16z"/><circle cx="360" cy="408" r="8"/><circle cx="392" cy="408" r="8"/><circle cx="424" cy="408" r="8"/><path d="m104 432h-48a8 8 0 0 0 0 16h48a8 8 0 0 0 0-16z"/></svg>