<svg id="Capa_1" enable-background="new 0 0 512 512" height="512" viewBox="0 0 512 512" width="512" xmlns="http://www.w3.org/2000/svg"><g><path d="m256 15-125 113.636v158.364c0 8.284 6.716 15 15 15h220c8.284 0 15-6.716 15-15v-158.364z" fill="#f6f9f9"/><path d="m366 302c8.284 0 15-6.716 15-15v-158.364l-125-113.636v287z" fill="#dadfe7"/><path d="m306 302h-100v-117c0-8.284 6.716-15 15-15h70c8.284 0 15 6.716 15 15z" fill="#dadfe7"/><path d="m291 170h-35v132h50v-117c0-8.284-6.716-15-15-15z" fill="#c6d0da"/><path d="m236 200h40v102h-40z" fill="#c8ffff"/><path d="m256 200h20v102h-20z" fill="#98f9ff"/><path d="m276 130h-40c-8.284 0-15-6.716-15-15s6.716-15 15-15h40c8.284 0 15 6.716 15 15s-6.716 15-15 15z" fill="#c8ffff"/><path d="m276 100h-20v30h20c8.284 0 15-6.716 15-15s-6.716-15-15-15z" fill="#98f9ff"/><path d="m395.996 157.273c-3.601 0-7.212-1.288-10.086-3.901l-129.91-118.1-129.91 118.1c-6.129 5.572-15.615 5.121-21.188-1.009s-5.121-15.617 1.009-21.189l140-127.273c5.721-5.201 14.459-5.201 20.18 0l140 127.273c6.13 5.573 6.582 15.06 1.009 21.189-2.96 3.256-7.026 4.91-11.104 4.91z" fill="#ff8493"/><path d="m385.91 153.372c2.874 2.613 6.485 3.901 10.086 3.901 4.078 0 8.144-1.654 11.103-4.91 5.573-6.13 5.121-15.617-1.009-21.189l-140-127.273c-2.861-2.601-6.475-3.901-10.09-3.901v35.272z" fill="#e20059"/><path d="m485.987 281.523c-15.804-5.894-33.15-1.468-44.197 11.277-.038.044-.076.088-.113.132l-67.649 79.912c-1.151 1.359-2.392 2.62-3.695 3.8 7.325-6.974 11.849-16.866 11.662-27.797-.352-20.564-17.59-36.847-38.157-36.847h-81.576l-18.562-14.849c-20.273-16.219-45.737-25.151-71.7-25.151s-51.427 8.932-71.7 25.151l-22.67 18.136c-3.559 2.846-5.63 7.156-5.63 11.713v155h185c.07 0 .137-.009.206-.01.073.001.144.01.218.01h108.699c24.168 0 46.982-11.741 61.03-31.407l77.396-108.356c4.874-6.821 7.45-14.859 7.45-23.245.001-16.867-10.21-31.574-26.012-37.469z" fill="#ffd2aa"/><path d="m485.987 281.523c-15.804-5.894-33.15-1.468-44.197 11.277-.038.044-.076.088-.113.132l-67.649 79.912c-1.151 1.359-2.392 2.62-3.695 3.8 7.325-6.974 11.849-16.866 11.662-27.797-.352-20.564-17.589-36.847-38.157-36.847h-81.576l-6.262-5.009v175.009h1c.07 0 .137-.009.206-.01.073.001.144.01.218.01h108.699c24.168 0 46.982-11.741 61.03-31.407l77.396-108.356c4.874-6.821 7.45-14.859 7.45-23.245.001-16.867-10.21-31.574-26.012-37.469z" fill="#ffbe8f"/><path d="m237 402c0 8.284 6.716 15 15 15h92.5c37.22 0 67.5-30.28 67.5-67.5 0-6.399-.915-12.586-2.586-18.456l-35.386 41.801c-.927 1.096-1.926 2.112-2.957 3.089-6.795 6.83-16.197 11.066-26.571 11.066h-92.5c-8.284 0-15 6.716-15 15z" fill="#ffbe8f"/><path d="m374.028 372.845c-.927 1.096-1.926 2.112-2.957 3.089-6.795 6.83-16.197 11.066-26.571 11.066h-88.5v30h88.5c37.22 0 67.5-30.28 67.5-67.5 0-6.399-.915-12.586-2.586-18.456z" fill="#f0a578"/><path d="m67 512h-52c-8.284 0-15-6.716-15-15v-210c0-8.284 6.716-15 15-15h52c8.284 0 15 6.716 15 15v210c0 8.284-6.716 15-15 15z" fill="#7dd5f4"/></g></svg>