<svg height="512" viewBox="0 0 512 512" width="512" xmlns="http://www.w3.org/2000/svg"><g><g><path d="m463 352h-351v-240h384z" fill="#d80027"/><path d="m16 48h72v32h-72z" fill="#57565c"/><circle cx="176" cy="432" fill="#57565c" r="32"/><circle cx="176" cy="432" fill="#e0e0e2" r="8"/><circle cx="392" cy="432" fill="#e0e0e2" r="8"/><circle cx="392" cy="432" fill="#57565c" r="32"/><circle cx="392" cy="432" fill="#e0e0e2" r="8"/><circle cx="392" cy="432" fill="#57565c" r="32"/><circle cx="288" cy="232" fill="#e0e0e2" r="88"/><path d="m336 200v32h-16v48h-64v-48h-16v-32l32-16a16 16 0 0 0 32 0z" fill="#91cc04"/></g><g><path d="m502.03 106.74a8.01 8.01 0 0 0 -6.03-2.74h-376v-40a8 8 0 0 0 -8-8h-16v-8a8 8 0 0 0 -8-8h-72a8 8 0 0 0 -8 8v32a8 8 0 0 0 8 8h72a8 8 0 0 0 8-8v-8h8v328a8 8 0 0 0 8 8h32.02a40 40 0 1 0 63.96 0h152.04a40 40 0 1 0 63.96 0h16.02a8 8 0 0 0 0-16h-320v-32h343a8.006 8.006 0 0 0 7.93-6.91l33-240a8.033 8.033 0 0 0 -1.9-6.35zm-422.03-34.74h-56v-16h56zm312 336a24 24 0 1 1 -24 24 24.032 24.032 0 0 1 24-24zm-216 0a24 24 0 1 1 -24 24 24.032 24.032 0 0 1 24-24zm280.02-64h-336.02v-224h366.83z"/><circle cx="176" cy="432" r="8"/><circle cx="392" cy="432" r="8"/><path d="m288 328a96 96 0 1 0 -96-96 96.108 96.108 0 0 0 96 96zm0-176a80 80 0 1 1 -80 80 80.091 80.091 0 0 1 80-80z"/><path d="m240 240h8v40a8 8 0 0 0 8 8h64a8 8 0 0 0 8-8v-40h8a8 8 0 0 0 8-8v-32a8 8 0 0 0 -4.422-7.155l-32-16a8 8 0 0 0 -11.578 7.155 8 8 0 0 1 -16 0 8 8 0 0 0 -11.578-7.155l-32 16a8 8 0 0 0 -4.422 7.155v32a8 8 0 0 0 8 8zm8-35.056 18.928-9.464a23.993 23.993 0 0 0 42.144 0l18.928 9.464v19.056h-8a8 8 0 0 0 -8 8v40h-48v-40a8 8 0 0 0 -8-8h-8z"/></g></g></svg>