<svg height="512pt" viewBox="-61 0 512 512" width="512pt" xmlns="http://www.w3.org/2000/svg"><path d="m390 435v62c0 8.402344-6.597656 15-15 15h-360c-8.402344 0-15-6.597656-15-15v-62c0-41.398438 33.601562-75 75-75h23.699219l96.300781 53.699219 96.300781-53.699219h23.699219c41.398438 0 75 33.601562 75 75zm0 0" fill="#ff3f5c"/><path d="m390 435v62c0 8.402344-6.597656 15-15 15h-180v-98.300781l96.300781-53.699219h23.699219c41.398438 0 75 33.601562 75 75zm0 0" fill="#ff001e"/><path d="m195 0c-107.402344 0-195 87.597656-195 195h390c0-107.402344-87.597656-195-195-195zm0 30c80.742188 0 148.121094 58.289062 162.265625 135h-324.53125c14.144531-76.710938 81.523437-135 162.265625-135zm0 0" fill="#596c76"/><path d="m195 0v30c80.742188 0 148.121094 58.289062 162.265625 135h-162.265625v30h195c0-107.402344-87.597656-195-195-195zm0 0" fill="#465a61"/><path d="m90 255c0 8.289062-6.710938 15-15 15h-30c-24.8125 0-45-20.1875-45-45v-30c0-24.8125 20.1875-45 45-45h30c8.289062 0 15 6.710938 15 15zm0 0" fill="#ff3f5c"/><path d="m345 150h-30c-8.289062 0-15 6.710938-15 15v90c0 8.289062 6.710938 15 15 15l26.53125 14.941406c0 .703125 18.46875-17.640625 18.46875-17.640625l-.027344-.058593c17.433594-6.203126 30.027344-22.703126 30.027344-42.242188v-30c0-24.8125-20.1875-45-45-45zm0 0" fill="#ff001e"/><path d="m330 200.097656v24.902344c0 57.898438-36.597656 108.601562-90 127.199219v7.800781h51.300781l-85.800781 85.5c-2.699219 3-6.601562 4.5-10.5 4.5s-7.800781-1.5-10.5-4.5l-85.800781-85.5h51.300781v-7.800781c-53.402344-18.597657-90-69.300781-90-127.199219v-30c0-5.097656.300781-10.199219.902344-15l62.699218-30h29.097657c14.703125 0 29.402343-3.898438 42.300781-10.800781 7.199219-4.199219 13.800781-9 19.5-14.699219 4.199219-4.5 10.5-5.699219 16.199219-3.300781 5.699219 2.402343 9.300781 7.800781 9.300781 13.800781v15h34.800781l54 30c.597657 6.898438 1.199219 13.5 1.199219 20.097656zm0 0" fill="#fed2a4"/><path d="m330 200.097656v24.902344c0 57.898438-36.597656 108.601562-90 127.199219v7.800781h51.300781l-85.800781 85.5c-2.699219 3-6.601562 4.5-10.5 4.5v-310.800781c7.199219-4.199219 13.800781-9 19.5-14.699219 4.199219-4.5 10.5-5.699219 16.199219-3.300781 5.699219 2.402343 9.300781 7.800781 9.300781 13.800781v15h34.800781l54 30c.597657 6.898438 1.199219 13.5 1.199219 20.097656zm0 0" fill="#ffbd86"/><path d="m360 267.300781v2.699219c0 16.5-13.5 30-30 30h-135c-8.402344 0-15-6.597656-15-15s6.597656-15 15-15h150c5.398438 0 10.199219-.902344 15-2.699219zm0 0" fill="#596c76"/><path d="m324.601562 161.101562c-15.601562-55.800781-61.5-95.101562-116.402343-100.5-4.5-.601562-8.699219-.601562-13.199219-.601562-66-.300781-126.597656 48-134.097656 120h91.796875c14.703125 0 29.101562-2.699219 42.300781-8.101562 6.300781-2.398438 12.300781-5.398438 18-8.699219 4.800781 9.902343 15 16.800781 27 16.800781h88.800781c-1.203125-6.300781-2.402343-12.597656-4.199219-18.898438zm0 0" fill="#465a61"/><path d="m315 465h-30c-8.289062 0-15-6.710938-15-15s6.710938-15 15-15h30c8.289062 0 15 6.710938 15 15s-6.710938 15-15 15zm0 0" fill="#b2d1d6"/><path d="m213 163.199219c-5.699219 3.300781-11.699219 6.300781-18 8.699219v-111.898438c4.5 0 8.699219 0 13.199219.601562 54.902343 5.398438 100.800781 44.699219 116.402343 100.5 1.796876 6.300782 2.996094 12.597657 4.199219 18.898438 0 0-18.601562 0-88.800781 0-12 0-22.199219-6.898438-27-16.800781zm0 0" fill="#3b4a51"/><path d="m345 270c5.398438 0 10.199219-.902344 15-2.699219v2.699219c0 16.5-13.5 30-30 30h-135v-30zm0 0" fill="#465a61"/></svg>