<svg id="Capa_1" enable-background="new 0 0 512 512" height="512" viewBox="0 0 512 512" width="512" xmlns="http://www.w3.org/2000/svg"><g><path d="m160.852 165.151h-69.598c-8.284 0-15 6.716-15 15v69.598c0 52.383 42.617 95 95 95h69.598c8.284 0 15-6.716 15-15v-69.598c0-52.383-42.617-95-95-95z" fill="#83e28f"/><path d="m420.45 165.151h-69.598c-52.383 0-95 42.617-95 95v69.598c0 8.284 6.716 15 15 15h69.598c52.383 0 95-42.617 95-95v-69.598c0-8.284-6.716-15-15-15z" fill="#4cbc94"/><path d="m315.671 53.607-49.213-49.213c-5.854-5.855-15.357-5.857-21.213 0l-49.213 49.213c-37.126 37.126-37.132 97.219 0 134.35l49.213 49.213c5.854 5.855 15.357 5.857 21.213 0l49.213-49.213c37.126-37.126 37.132-97.219 0-134.35z" fill="#a2f2a2"/><path d="m315.672 187.96-49.21 49.21c-2.93 2.93-6.77 4.39-10.61 4.39v-241.56c3.84 0 7.68 1.46 10.61 4.39l49.21 49.22c37.13 37.13 37.13 97.22 0 134.35z" fill="#83e28f"/><path d="m356.308 229.293c-5.857-5.858-15.355-5.858-21.213 0l-64.243 64.243v-173.536c0-8.284-6.716-15-15-15s-15 6.716-15 15v173.536l-64.243-64.243c-5.857-5.858-15.355-5.858-21.213 0s-5.858 15.355 0 21.213l85.456 85.456v40.038c0 8.284 6.716 15 15 15s15-6.716 15-15v-40.038l85.456-85.456c5.859-5.858 5.859-15.355 0-21.213z" fill="#4cbc94"/><path d="m356.312 250.51-85.46 85.45v40.04c0 8.28-6.72 15-15 15v-286c8.28 0 15 6.72 15 15v173.54l64.24-64.25c5.86-5.86 15.36-5.86 21.22 0 5.85 5.86 5.85 15.36 0 21.22z" fill="#019191"/><g><path d="m413.277 314.749h-157.777v197.251h157.777c54.382 0 98.625-44.243 98.625-98.625s-44.243-98.626-98.625-98.626z" fill="#dd335a"/><path d="m98.723 314.749c-54.382 0-98.625 44.243-98.625 98.625s44.243 98.626 98.625 98.626h157.129v-197.251z" fill="#e3e8ff"/></g></g></svg>