<svg id="Capa_1" enable-background="new 0 0 512 512" height="512" viewBox="0 0 512 512" width="512" xmlns="http://www.w3.org/2000/svg"><g><path d="m343.75 62.335-51.34-7.46-22.96-46.52c-2.75-5.56-8.1-8.35-13.45-8.35s-10.7 2.79-13.45 8.35l-22.96 46.52-51.34 7.46c-12.29 1.79-17.2 16.93-8.32 25.59l37.15 36.21-8.76 51.14c-2.1 12.24 10.78 21.58 21.76 15.81l45.92-24.14 45.92 24.14c10.98 5.77 23.86-3.58 21.76-15.81l-8.76-51.14 37.15-36.21c8.88-8.67 3.96-23.8-8.32-25.59z" fill="#fed843"/><path d="m352.07 87.925-37.15 36.21 8.76 51.14c2.1 12.23-10.78 21.58-21.76 15.81l-45.92-24.14v-166.94c5.35 0 10.7 2.79 13.45 8.35l22.96 46.52 51.34 7.46c12.28 1.79 17.2 16.92 8.32 25.59z" fill="#ffb64c"/><path d="m191.999 261.306c-51.686-14.303-97.499-45.311-128.999-87.311-4.971-6.627-3.627-16.029 3-21 6.627-4.97 16.029-3.627 21 3 27.541 36.722 67.673 63.854 113.001 76.398 7.983 2.209 12.665 10.473 10.456 18.457-2.199 7.945-10.436 12.677-18.458 10.456z" fill="#ff6c6c"/><path d="m301.543 250.85c-2.209-7.984 2.473-16.248 10.456-18.457 45.328-12.544 85.46-39.676 113.001-76.398 4.97-6.626 14.374-7.971 21-3 6.627 4.971 7.971 14.373 3 21-31.5 42-77.313 73.008-128.999 87.311-8.018 2.22-16.257-2.505-18.458-10.456z" fill="#e63950"/><path d="m449.45 490.345-90-182c-2.53-5.11-7.74-8.35-13.45-8.35h-180c-5.71 0-10.92 3.24-13.45 8.35l-90 182c-4.93 9.98 2.36 21.65 13.45 21.65h360c11.14 0 18.36-11.72 13.45-21.65z" fill="#ff6c6c"/><path d="m436 511.995h-180v-212h90c5.71 0 10.92 3.24 13.45 8.35l90 182c4.91 9.93-2.31 21.65-13.45 21.65z" fill="#e63950"/><path d="m45 149.995c-24.813 0-45-20.187-45-45s20.187-45 45-45 45 20.187 45 45-20.187 45-45 45z" fill="#fed843"/><path d="m75 389.995h-60c-8.284 0-15-6.716-15-15v-210c0-8.284 6.716-15 15-15h60c8.284 0 15 6.716 15 15v210c0 8.284-6.716 15-15 15z" fill="#575f64"/><path d="m467 149.995c-24.813 0-45-20.187-45-45s20.187-45 45-45 45 20.187 45 45-20.187 45-45 45z" fill="#ffb64c"/><path d="m497 389.995h-60c-8.284 0-15-6.716-15-15v-210c0-8.284 6.716-15 15-15h60c8.284 0 15 6.716 15 15v210c0 8.284-6.716 15-15 15z" fill="#474f54"/></g></svg>